<svg xmlns="http://www.w3.org/2000/svg" width="28.453" height="28.454" viewBox="0 0 28.453 28.454">
  <g id="rozvoj" transform="translate(-733.327 -765.647)">
    <path id="Path_68" data-name="Path 68" d="M742.386,788.276l-2.964,2.172-2.438-2.437,2.169-2.964a9.824,9.824,0,0,1-1.2-2.884l-3.629-.56v-3.449l3.626-.562a9.743,9.743,0,0,1,1.194-2.888l-2.169-2.961,2.437-2.439,2.961,2.166a9.756,9.756,0,0,1,2.89-1.2l.34-3.627h3.887l.344,3.628a9.82,9.82,0,0,1,2.885,1.194l2.961-2.169,2.438,2.437-2.169,2.964a9.743,9.743,0,0,1,1.193,2.884l3.634.56v3.449l-3.634.563a9.757,9.757,0,0,1-1.194,2.881L758.126,788l-2.437,2.438-2.967-2.172a9.719,9.719,0,0,1-2.879,1.191h0l-.559,3.636h-3.668l-.344-3.634a9.753,9.753,0,0,1-2.885-1.191" fill="none" stroke="#ff8f20" stroke-linecap="round" stroke-linejoin="round" stroke-width="2"/>
    <path id="Path_69" data-name="Path 69" d="M756.558,786.49a4.762,4.762,0,1,1-2.39-6.3A4.762,4.762,0,0,1,756.558,786.49Z" transform="translate(-4.663 -4.664)" fill="none" stroke="#0187ff" stroke-linecap="round" stroke-linejoin="round" stroke-width="2"/>
  </g>
</svg>
