<svg version="1.2" xmlns="http://www.w3.org/2000/svg" viewBox="0 0 19 19" width="19" height="19">
	<title>Footer</title>
	<style>
		.s0 { fill: #ffffff } 
	</style>
	<g id="Footer">
		<path id="-e-ig" fill-rule="evenodd" class="s0" d="m19 3.7v3.9 7.7c0 2.1-1.6 3.7-3.7 3.7h-11.6c-2.1 0-3.7-1.6-3.7-3.7v-7.7-3.9c0-2.1 1.6-3.7 3.7-3.7h11.6c2.1 0 3.7 1.6 3.7 3.7zm-2.6-1.5h0.4v0.4 2.8h-3.2v-3.2zm-9.6 5.4c0.6-0.9 1.6-1.4 2.7-1.4 1.1 0 2.1 0.5 2.7 1.4 0.4 0.5 0.6 1.2 0.6 1.9 0 1.9-1.5 3.4-3.3 3.4-1.8 0-3.3-1.5-3.3-3.4 0-0.7 0.2-1.4 0.6-1.9zm10.3 7.7c0 1-0.8 1.9-1.8 1.9h-11.6c-1 0-1.9-0.9-1.9-1.9v-7.7h2.9q-0.4 0.9-0.4 1.9c0 2.9 2.3 5.2 5.2 5.2 2.9 0 5.2-2.3 5.2-5.2q0-1-0.4-1.9h2.8z"/>
	</g>
</svg>