<svg id="linkedin" xmlns="http://www.w3.org/2000/svg" width="18.991" height="18.991" viewBox="0 0 18.991 18.991">
  <circle id="Ellipse_22" data-name="Ellipse 22" cx="8" cy="8" r="8" transform="translate(1 2)" fill="#636973" opacity="0"/>
  <path id="linkedin-rect" d="M3.728.009A3.733,3.733,0,0,0,.007,3.731V15.279A3.732,3.732,0,0,0,3.729,19H15.277A3.732,3.732,0,0,0,19,15.279V3.731A3.732,3.732,0,0,0,15.277.009Zm.936,3.134a1.5,1.5,0,1,1-.019,2.981H4.627a1.495,1.495,0,1,1,.037-2.981ZM13.121,7.1c1.887,0,3.3,1.233,3.3,3.884v4.948H13.554V11.317c0-1.16-.415-1.952-1.453-1.952a1.571,1.571,0,0,0-1.472,1.049,1.958,1.958,0,0,0-.094.7v4.819H7.667s.037-7.82,0-8.63h2.868V8.525A2.847,2.847,0,0,1,13.12,7.1Zm-9.909.2H6.079v8.629H3.212V7.3Z" transform="translate(-0.007 -0.009)" fill="#fff"/>
</svg>
