<svg xmlns="http://www.w3.org/2000/svg" width="18.999" height="15.832" viewBox="0 0 18.999 15.832">
  <path id="twitter" d="M19,4.852a5.106,5.106,0,0,1-.709,1.016,5.237,5.237,0,0,1-1.281,1.08q.021.169.032.318a11.528,11.528,0,0,1-.815,4.416,11.629,11.629,0,0,1-4.628,5.75,12.168,12.168,0,0,1-7.244,1.324A8.318,8.318,0,0,1,0,17.073,8.111,8.111,0,0,0,5.8,15.4a4,4,0,0,1-3.685-2.732,2.478,2.478,0,0,0,.826.042,7.685,7.685,0,0,0,.932-.127,4.369,4.369,0,0,1-2.648-2.055A4.429,4.429,0,0,1,.784,8.58a3.721,3.721,0,0,0,1.758.529A4.542,4.542,0,0,1,.815,6.3a5.2,5.2,0,0,1,.477-2.531A13.312,13.312,0,0,0,5.814,7.16,9.368,9.368,0,0,0,9.362,7.9a4.741,4.741,0,0,1,.477-3.008,4.1,4.1,0,0,1,2.446-1.779,3.611,3.611,0,0,1,3.622,1.123,6.447,6.447,0,0,0,2.521-.932A3.824,3.824,0,0,1,16.69,5.55,11.013,11.013,0,0,0,19,4.852Z" transform="translate(0 -3)" fill="#fff"/>
</svg>
