<svg xmlns="http://www.w3.org/2000/svg" width="358.555" height="670.026" viewBox="0 0 358.555 670.026">
  <g id="wireframe" transform="translate(-2153.092 -288.271)" opacity="0.15">
    <rect id="Rectangle_25" data-name="Rectangle 25" width="355.555" height="667.026" rx="40" transform="translate(2154.592 289.771)" fill="none" stroke="#b3bac6" stroke-width="3"/>
    <g id="Group_57" data-name="Group 57" transform="translate(2180.938 388.375)">
      <rect id="Rectangle_26" data-name="Rectangle 26" width="304.085" height="183.685" rx="36.551" transform="translate(0)" fill="none" stroke="#b3bac6" stroke-width="3"/>
    </g>
    <rect id="Rectangle_27" data-name="Rectangle 27" width="304.085" height="90.921" rx="25.716" transform="translate(2180.938 587.51)" fill="none" stroke="#b3bac6" stroke-width="3"/>
    <g id="Group_58" data-name="Group 58" transform="translate(2193.877 606.348)">
      <circle id="Ellipse_14" data-name="Ellipse 14" cx="26.623" cy="26.623" r="26.623" transform="translate(0)" fill="none" stroke="#b3bac6" stroke-width="3"/>
      <rect id="Rectangle_28" data-name="Rectangle 28" width="110.219" height="9.921" rx="4.961" transform="translate(68.294 13.47)" fill="none" stroke="#b3bac6" stroke-width="3"/>
      <path id="Path_59" data-name="Path 59" d="M2453.711,1082.2H2384.5a4.96,4.96,0,0,1-4.96-4.96h0a4.96,4.96,0,0,1,4.96-4.961h69.211a4.961,4.961,0,0,1,4.96,4.961h0A4.96,4.96,0,0,1,2453.711,1082.2Z" transform="translate(-2311.246 -1041.932)" fill="none" stroke="#b3bac6" stroke-width="3"/>
    </g>
    <path id="Rectangle_29" data-name="Rectangle 29" d="M25.716,0H278.369a25.715,25.715,0,0,1,25.715,25.715v39.49a25.716,25.716,0,0,1-25.716,25.716H25.716A25.716,25.716,0,0,1,0,65.205V25.716A25.716,25.716,0,0,1,25.716,0Z" transform="translate(2180.938 690.078)" fill="none" stroke="#b3bac6" stroke-width="3"/>
    <g id="Group_59" data-name="Group 59" transform="translate(2193.877 708.915)">
      <circle id="Ellipse_15" data-name="Ellipse 15" cx="26.623" cy="26.623" r="26.623" transform="translate(0)" fill="none" stroke="#b3bac6" stroke-width="3"/>
      <path id="Path_60" data-name="Path 60" d="M2484.8,1275.483H2384.5a4.96,4.96,0,0,1-4.96-4.961h0a4.96,4.96,0,0,1,4.96-4.96h100.3a4.96,4.96,0,0,1,4.96,4.96h0A4.96,4.96,0,0,1,2484.8,1275.483Z" transform="translate(-2311.246 -1252.092)" fill="none" stroke="#b3bac6" stroke-width="3"/>
      <path id="Path_61" data-name="Path 61" d="M2453.711,1313.547H2384.5a4.96,4.96,0,0,1-4.96-4.961h0a4.96,4.96,0,0,1,4.96-4.961h69.211a4.96,4.96,0,0,1,4.96,4.961h0A4.961,4.961,0,0,1,2453.711,1313.547Z" transform="translate(-2311.246 -1273.28)" fill="none" stroke="#b3bac6" stroke-width="3"/>
    </g>
    <path id="Rectangle_30" data-name="Rectangle 30" d="M25.716,0H278.369a25.715,25.715,0,0,1,25.715,25.715v39.49a25.715,25.715,0,0,1-25.715,25.715H25.716A25.716,25.716,0,0,1,0,65.205V25.716A25.716,25.716,0,0,1,25.716,0Z" transform="translate(2180.938 792.645)" fill="none" stroke="#b3bac6" stroke-width="3"/>
    <g id="Group_60" data-name="Group 60" transform="translate(2193.877 811.483)">
      <circle id="Ellipse_16" data-name="Ellipse 16" cx="26.623" cy="26.623" r="26.623" transform="translate(0 0)" fill="none" stroke="#b3bac6" stroke-width="3"/>
      <path id="Path_62" data-name="Path 62" d="M2484.8,1506.831H2384.5a4.96,4.96,0,0,1-4.96-4.96h0a4.96,4.96,0,0,1,4.96-4.961h100.3a4.96,4.96,0,0,1,4.96,4.961h0A4.96,4.96,0,0,1,2484.8,1506.831Z" transform="translate(-2311.246 -1483.44)" fill="none" stroke="#b3bac6" stroke-width="3"/>
      <rect id="Rectangle_31" data-name="Rectangle 31" width="79.131" height="9.921" rx="4.961" transform="translate(68.294 30.346)" fill="none" stroke="#b3bac6" stroke-width="3"/>
    </g>
    <g id="Group_61" data-name="Group 61" transform="translate(2175.533 315.44)">
      <circle id="Ellipse_17" data-name="Ellipse 17" cx="26.623" cy="26.623" r="26.623" transform="translate(0 51.821) rotate(-76.717)" fill="none" stroke="#b3bac6" stroke-width="3"/>
      <path id="Path_63" data-name="Path 63" d="M2455.611,400.163h-100.3a4.961,4.961,0,0,1-4.96-4.961h0a4.961,4.961,0,0,1,4.96-4.961h100.3a4.961,4.961,0,0,1,4.961,4.961h0A4.96,4.96,0,0,1,2455.611,400.163Z" transform="translate(-2276.655 -371.368)" fill="none" stroke="#b3bac6" stroke-width="3"/>
      <path id="Path_64" data-name="Path 64" d="M2424.523,438.227h-69.21a4.961,4.961,0,0,1-4.96-4.961h0a4.961,4.961,0,0,1,4.96-4.961h69.21a4.961,4.961,0,0,1,4.961,4.961h0A4.961,4.961,0,0,1,2424.523,438.227Z" transform="translate(-2276.655 -392.556)" fill="none" stroke="#b3bac6" stroke-width="3"/>
    </g>
  </g>
</svg>
